<svg width="200" height="200" viewBox="0 0 200 200" fill="none" xmlns="http://www.w3.org/2000/svg">
<path d="M167 56.85L119 23.2667C105.917 14.1 85.8334 14.6 73.25 24.35L31.5 56.9333C23.1667 63.4333 16.5834 76.7667 16.5834 87.2667V144.767C16.5834 166.017 33.8334 183.35 55.0834 183.35H144.917C166.167 183.35 183.417 166.1 183.417 144.85V88.35C183.417 77.1 176.167 63.2667 167 56.85ZM106.25 150.017C106.25 153.433 103.417 156.267 100 156.267C96.5834 156.267 93.75 153.433 93.75 150.017V125.017C93.75 121.6 96.5834 118.767 100 118.767C103.417 118.767 106.25 121.6 106.25 125.017V150.017Z" fill="#262A2D"/>
</svg>
