<svg width="200" height="200" viewBox="0 0 200 200" fill="none" xmlns="http://www.w3.org/2000/svg">
<path d="M148.25 189.583H51.75C28.9166 189.583 10.4166 171 10.4166 148.167V86.4166C10.4166 75.0833 17.4166 60.8333 26.4166 53.8333L71.3333 18.8333C84.8333 8.33332 106.417 7.83332 120.417 17.6667L171.917 53.75C181.833 60.6667 189.583 75.5 189.583 87.5833V148.25C189.583 171 171.083 189.583 148.25 189.583ZM79 28.6667L34.0833 63.6667C28.1666 68.3333 22.9166 78.9166 22.9166 86.4166V148.167C22.9166 155.821 25.9517 163.164 31.3566 168.584C36.7616 174.005 44.0952 177.061 51.75 177.083H148.25C164.167 177.083 177.083 164.167 177.083 148.25V87.5833C177.083 79.5833 171.333 68.5 164.75 64L113.25 27.9167C103.75 21.25 88.0833 21.5833 79 28.6667Z" fill="#262A2D"/>
<path d="M100 156.25C96.5833 156.25 93.75 153.417 93.75 150V125C93.75 121.583 96.5833 118.75 100 118.75C103.417 118.75 106.25 121.583 106.25 125V150C106.25 153.417 103.417 156.25 100 156.25Z" fill="#262A2D"/>
</svg>
