<svg width="200" height="200" viewBox="0 0 200 200" fill="none" xmlns="http://www.w3.org/2000/svg">
<path d="M70.7186 18.0445L70.7194 18.044C84.5669 7.27365 106.632 6.76322 120.99 16.8477L70.7186 18.0445ZM70.7186 18.0445L25.8027 53.044C21.1552 56.6586 17.0685 62.1042 14.144 68.0592C11.2197 74.0138 9.41663 80.5609 9.41663 86.4166V148.167C9.41663 171.55 28.3617 190.583 51.75 190.583H148.25C171.637 190.583 190.583 171.551 190.583 148.25V87.5833C190.583 81.3438 188.588 74.456 185.355 68.2662C182.122 62.0764 177.609 56.501 172.489 52.9298L120.991 16.8483L70.7186 18.0445ZM79.6146 29.4555L79.6149 29.4552C83.9517 26.0733 89.9171 24.267 95.9904 24.1352C102.063 24.0034 108.134 25.5483 112.676 28.7352L112.676 28.7356L164.176 64.819L164.186 64.8256C167.298 66.953 170.285 70.6984 172.499 74.9416C174.712 79.1839 176.083 83.794 176.083 87.5833V148.25C176.083 163.614 163.614 176.083 148.25 176.083H51.7528C44.3628 176.062 37.2828 173.111 32.0648 167.878C26.8468 162.645 23.9166 155.557 23.9166 148.167V86.4166C23.9166 82.8702 25.1674 78.5039 27.1783 74.421C29.188 70.3404 31.896 66.6664 34.7001 64.4538C34.7009 64.4531 34.7018 64.4525 34.7026 64.4518L79.6146 29.4555Z" fill="#262A2D" stroke="#262A2D" stroke-width="2"/>
<path d="M92.75 150C92.75 153.969 96.031 157.25 100 157.25C103.969 157.25 107.25 153.969 107.25 150V125C107.25 121.031 103.969 117.75 100 117.75C96.031 117.75 92.75 121.031 92.75 125V150Z" fill="#262A2D" stroke="#262A2D" stroke-width="2"/>
</svg>
