<svg width="220" height="220" viewBox="0 0 220 220" fill="none" xmlns="http://www.w3.org/2000/svg">
<path d="M177.283 132.825L168.117 117.608C166.192 114.217 164.45 107.8 164.45 104.042V80.85C164.439 70.6203 161.532 60.6028 156.065 51.9564C150.598 43.31 142.795 36.3881 133.558 31.9916C131.201 27.8056 127.762 24.3296 123.602 21.927C119.442 19.5243 114.712 18.2832 109.908 18.3333C99.9166 18.3333 90.9333 23.7416 86.1666 32.2666C68.2916 41.1583 55.9166 59.5833 55.9166 80.85V104.042C55.9166 107.8 54.175 114.217 52.25 117.517L42.9917 132.825C39.325 138.967 38.5 145.75 40.7917 151.983C42.9916 158.125 48.2167 162.892 55 165.183C72.7833 171.233 91.4833 174.167 110.183 174.167C128.883 174.167 147.583 171.233 165.367 165.275C171.783 163.167 176.733 158.308 179.117 151.983C181.5 145.658 180.858 138.692 177.283 132.825ZM135.942 183.425C134.014 188.761 130.49 193.375 125.849 196.639C121.207 199.902 115.674 201.658 110 201.667C102.758 201.667 95.6083 198.733 90.5666 193.508C87.6333 190.758 85.4333 187.092 84.15 183.333C85.3417 183.517 86.5333 183.608 87.8166 183.792C89.925 184.067 92.125 184.342 94.325 184.525C99.55 184.983 104.867 185.258 110.183 185.258C115.408 185.258 120.633 184.983 125.767 184.525C127.692 184.342 129.617 184.25 131.45 183.975L135.942 183.425Z" fill="#262A2D"/>
</svg>
