<svg width="200" height="200" viewBox="0 0 200 200" fill="none" xmlns="http://www.w3.org/2000/svg">
<path d="M100.167 24.25C72.5833 24.25 50.1667 46.6667 50.1667 74.25V98.3333C50.1667 103.417 48 111.167 45.4167 115.5L35.8333 131.417C29.9167 141.25 34 152.167 44.8333 155.833C80.75 167.833 119.5 167.833 155.417 155.833C165.5 152.5 169.917 140.583 164.417 131.417L154.833 115.5C152.333 111.167 150.167 103.417 150.167 98.3333V74.25C150.167 46.75 127.667 24.25 100.167 24.25Z" stroke="#262A2D" stroke-width="15" stroke-miterlimit="10" stroke-linecap="round"/>
<path d="M115.583 26.6667C105.506 23.7966 94.8274 23.7966 84.75 26.6667C87.1667 20.5 93.1667 16.1667 100.167 16.1667C107.167 16.1667 113.167 20.5 115.583 26.6667Z" stroke="#262A2D" stroke-width="15" stroke-miterlimit="10" stroke-linecap="round" stroke-linejoin="round"/>
<path d="M125.167 158.833C125.167 172.583 113.917 183.833 100.167 183.833C93.3333 183.833 87 181 82.5 176.5C77.8179 171.811 75.1816 165.46 75.1666 158.833" stroke="#262A2D" stroke-width="15" stroke-miterlimit="10"/>
</svg>
