<svg width="200" height="200" viewBox="0 0 200 200" fill="none" xmlns="http://www.w3.org/2000/svg">
<path d="M133.333 105.25H66.6666C63.8022 105.25 61.4166 102.864 61.4166 100C61.4166 97.1356 63.8022 94.75 66.6666 94.75H133.333C136.198 94.75 138.583 97.1356 138.583 100C138.583 102.864 136.198 105.25 133.333 105.25Z" fill="#262A2D" stroke="#262A2D" stroke-width="2"/>
<path d="M100 138.583C97.1356 138.583 94.75 136.198 94.75 133.333V66.6667C94.75 63.8023 97.1356 61.4167 100 61.4167C102.864 61.4167 105.25 63.8023 105.25 66.6667V133.333C105.25 136.198 102.864 138.583 100 138.583Z" fill="#262A2D" stroke="#262A2D" stroke-width="2"/>
<path d="M125 188.583H75C52.4898 188.583 36.664 183.771 26.4467 173.553C16.2293 163.336 11.4166 147.51 11.4166 125V75C11.4166 52.4898 16.2293 36.664 26.4467 26.4467C36.664 16.2294 52.4898 11.4167 75 11.4167H125C147.51 11.4167 163.336 16.2294 173.553 26.4467C183.771 36.664 188.583 52.4898 188.583 75V125C188.583 147.51 183.771 163.336 173.553 173.553C163.336 183.771 147.51 188.583 125 188.583ZM75 21.9167C55.7211 21.9167 42.3544 25.3355 33.8449 33.845C25.3354 42.3545 21.9166 55.7211 21.9166 75V125C21.9166 144.279 25.3354 157.646 33.8449 166.155C42.3544 174.665 55.7211 178.083 75 178.083H125C144.279 178.083 157.645 174.665 166.155 166.155C174.664 157.646 178.083 144.279 178.083 125V75C178.083 55.7211 174.664 42.3545 166.155 33.845C157.645 25.3355 144.279 21.9167 125 21.9167H75Z" fill="#262A2D" stroke="#262A2D" stroke-width="2"/>
</svg>
