<svg width="200" height="200" viewBox="0 0 200 200" fill="none" xmlns="http://www.w3.org/2000/svg">
<path d="M100 65.75L91.0834 81.25C89.0834 84.6667 90.75 87.5 94.6667 87.5H105.25C109.25 87.5 110.833 90.3333 108.833 93.75L100 109.25" stroke="white" stroke-width="15" stroke-linecap="round" stroke-linejoin="round"/>
<path d="M70.8333 183.333C89.9167 177.917 110.083 177.917 129.167 183.333M69.1667 150.333V140.667C50 129.083 34.25 106.5 34.25 82.5C34.25 41.25 72.1667 8.91667 115 18.25C133.833 22.4167 150.333 34.9167 158.917 52.1667C176.333 87.1667 158 124.333 131.083 140.583V150.25C131.083 152.667 132 158.25 123.083 158.25H77.1667C68 158.333 69.1667 154.75 69.1667 150.333Z" stroke="white" stroke-width="15" stroke-linecap="round" stroke-linejoin="round"/>
</svg>
