<svg width="200" height="200" viewBox="0 0 200 200" fill="none" xmlns="http://www.w3.org/2000/svg">
<path fill-rule="evenodd" clip-rule="evenodd" d="M99.9999 10.4167C89.5017 10.4167 79.4336 14.587 72.0103 22.0103C64.5869 29.4337 60.4166 39.5018 60.4166 50C60.4166 60.4981 64.5869 70.5663 72.0103 77.9896C79.4336 85.413 89.5017 89.5833 99.9999 89.5833C110.498 89.5833 120.566 85.413 127.99 77.9896C135.413 70.5663 139.583 60.4981 139.583 50C139.583 39.5018 135.413 29.4337 127.99 22.0103C120.566 14.587 110.498 10.4167 99.9999 10.4167ZM72.9166 50C72.9166 42.817 75.77 35.9283 80.8491 30.8492C85.9282 25.7701 92.8169 22.9167 99.9999 22.9167C107.183 22.9167 114.072 25.7701 119.151 30.8492C124.23 35.9283 127.083 42.817 127.083 50C127.083 57.1829 124.23 64.0717 119.151 69.1508C114.072 74.2299 107.183 77.0833 99.9999 77.0833C92.8169 77.0833 85.9282 74.2299 80.8491 69.1508C75.77 64.0717 72.9166 57.1829 72.9166 50ZM99.9999 102.083C80.7249 102.083 62.9582 106.467 49.7999 113.867C36.8332 121.167 27.0832 132.217 27.0832 145.833V146.683C27.0749 156.367 27.0666 168.517 37.7249 177.2C42.9666 181.467 50.3082 184.508 60.2249 186.508C70.1582 188.525 83.1166 189.583 99.9999 189.583C116.883 189.583 129.833 188.525 139.783 186.508C149.7 184.508 157.033 181.467 162.283 177.2C172.942 168.517 172.925 156.367 172.917 146.683V145.833C172.917 132.217 163.167 121.167 150.208 113.867C137.042 106.467 119.283 102.083 99.9999 102.083ZM39.5832 145.833C39.5832 138.742 44.7666 131.042 55.9249 124.767C66.8916 118.6 82.4582 114.583 100.008 114.583C117.542 114.583 133.108 118.6 144.075 124.767C155.242 131.042 160.417 138.742 160.417 145.833C160.417 156.733 160.083 162.867 154.383 167.5C151.3 170.017 146.133 172.475 137.3 174.258C128.492 176.042 116.45 177.083 99.9999 177.083C83.5499 177.083 71.4999 176.042 62.6999 174.258C53.8666 172.475 48.6999 170.017 45.6166 167.508C39.9166 162.867 39.5832 156.733 39.5832 145.833Z" fill="black"/>
</svg>
